<svg xmlns="http://www.w3.org/2000/svg" version="1.1" xmlns:xlink="http://www.w3.org/1999/xlink" xmlns:svgjs="http://svgjs.dev/svgjs" width="100%" height="100%" viewBox="0 0 1000 600"><rect width="1000" height="600" x="0" y="0" fill="#16181d"/><g><circle r="166.66666666666666" cx="474.11869303385413" cy="496.3409331526051" fill="#50c878" transform="matrix(0.40656749228405376,0,0,0.40656749228405376,0,98.20391387924833)"/><path d="M542.6867828471238 465.64645414277527L519.6842426715198 465.64645414277527Q513.5599994910085 452.78261320380676 501.956170306882 445.7206868569015Q490.3523411227555 438.6294579110465 474.96847667410293 438.6294579110465L474.96847667410293 438.6294579110465Q459.5553096265006 438.6294579110465 447.2189154686288 445.7206868569015Q434.88252131075694 452.78261320380676 427.79129236490184 465.9687827312232Q420.7293660179966 479.1549522586397 420.7293660179966 496.44348563903014L420.7293660179966 496.44348563903014Q420.7293660179966 513.7613216183704 427.79129236490184 526.8302807499877Q434.88252131075694 539.8992398816048 447.2189154686288 546.9904688274598Q459.5553096265006 554.0523951743651 474.96847667410293 554.0523951743651L474.96847667410293 554.0523951743651Q496.4765843032667 554.0523951743651 510.3953188044285 541.1885542353966Q524.3140533055903 528.2954106974782 526.6582612215755 506.3770666830172L526.6582612215755 506.3770666830172L467.9944581240471 506.3770666830172L467.9944581240471 490.7587814427662L547.111475288546 490.7587814427662L547.111475288546 505.5272913134726Q545.4119245494567 523.6656000634076 535.7127642970681 538.7564385225621Q526.0136040446796 553.8472769817165 510.1902006117798 562.5794514687611Q494.36679717888006 571.3409285547557 474.96847667410293 571.3409285547557L474.96847667410293 571.3409285547557Q454.4859600081827 571.3409285547557 437.6076630130897 561.7589786981662Q420.7293660179966 552.1477262426272 410.9129953698088 535.0643110548854Q401.12592732057084 517.9808958671437 401.12592732057084 496.44348563903014L401.12592732057084 496.44348563903014Q401.12592732057084 474.9353780098664 410.9129953698088 457.7347524263254Q420.7293660179966 440.53412684278436 437.6076630130897 430.95217698619507Q454.4859600081827 421.34092453065597 474.96847667410293 421.34092453065597L474.96847667410293 421.34092453065597Q498.38125323500464 421.34092453065597 516.4023515891404 432.9447537147825Q534.4527525422261 444.54858289890893 542.6867828471238 465.64645414277527L542.6867828471238 465.64645414277527Z " fill="#16181d" transform="matrix(0.40656749228405376,0,0,0.40656749228405376,0,98.20391387924833)"/><path d="M783.1952751378429 429.96321415627267L801.6358461441915 429.96321415627267L801.6358461441915 533.0969053953993Q801.6358461441915 550.3136677678424 791.0109620952848 560.6325996582727Q780.386078046378 570.9237177161144 762.9746188458136 570.9237177161144L762.9746188458136 570.9237177161144Q745.3406489845389 570.9237177161144 734.7435787682209 560.4100889975628Q724.1186947193141 549.8964602790111 724.1186947193141 531.6783999333725L724.1186947193141 531.6783999333725L742.3367550649526 531.6783999333725Q742.5592657256628 541.8860764934477 747.6491970894061 548.3110718214516Q752.7669422857381 554.7082533168666 762.9746188458136 554.7082533168666L762.9746188458136 554.7082533168666Q773.1822954058889 554.7082533168666 778.1887852718659 548.617023979928Q783.1952751378429 542.4979808104006 783.1952751378429 533.0969053953993L783.1952751378429 533.0969053953993L783.1952751378429 429.96321415627267ZM885.3276684037742 571.340925204946Q869.9188051496003 571.340925204946 857.4025804846578 564.3318393925781Q844.8863558197154 557.3227535802102 837.7660146769924 544.3893214264363Q830.6734873668584 531.4837031052512 830.6734873668584 514.4616375609291L830.6734873668584 514.4616375609291Q830.6734873668584 497.6342688447287 837.9607115051137 484.7286505235435Q845.275749475958 471.79521836976954 857.9032294712556 464.89738788775674Q870.5028956339643 457.999557405744 886.1342695488481 457.999557405744L886.1342695488481 457.999557405744Q901.765643463732 457.999557405744 914.3653096264409 464.89738788775674Q926.9927896217384 471.79521836976954 934.3078275925825 484.61739519318843Q941.5950517308381 497.43957201660737 941.5950517308381 514.4616375609291L941.5950517308381 514.4616375609291Q941.5950517308381 531.4837031052512 934.0853169318725 544.3893214264363Q926.5755821329069 557.3227535802102 913.7812191420769 564.3318393925781Q900.9590423186578 571.340925204946 885.3276684037742 571.340925204946L885.3276684037742 571.340925204946ZM885.3276684037742 555.3201576338195Q895.1459513076068 555.3201576338195 903.7682394101228 550.703061424085Q912.3627136800499 546.1137790469395 917.6751557045034 536.8795866274708Q922.9875977289569 527.6732080405908 922.9875977289569 514.4616375609291L922.9875977289569 514.4616375609291Q922.9875977289569 501.2500670812677 917.7864110348585 492.0436884943877Q912.5574105081714 482.80949607491897 904.1576330663654 478.30365519553965Q895.7578556245596 473.7978143161603 885.9395727207268 473.7978143161603L885.9395727207268 473.7978143161603Q875.9265929887729 473.7978143161603 867.6102570447333 478.30365519553965Q859.2939211006935 482.80949607491897 854.2874312347167 492.0436884943877Q849.2809413687396 501.2500670812677 849.2809413687396 514.4616375609291L849.2809413687396 514.4616375609291Q849.2809413687396 527.8679048687121 854.2039897369502 537.1020972881809Q859.0992242725722 546.3084758750608 867.3043048862569 550.8143167544401Q875.5093854999413 555.3201576338195 885.3276684037742 555.3201576338195L885.3276684037742 555.3201576338195ZM1004.4821272140271 571.340925204946Q991.8824610513184 571.340925204946 981.8694813193642 567.029781153688Q971.8565015874103 562.71863710243 966.0434105763591 555.014205475343Q960.230319565308 547.3097738482562 959.6184152483554 537.2967941163022L959.6184152483554 537.2967941163022L978.4483799109466 537.2967941163022Q979.2549810560208 545.5018747299866 986.1528115380336 550.703061424085Q993.078455852635 555.9042481181834 1004.2874303859057 555.9042481181834L1004.2874303859057 555.9042481181834Q1014.6898037741025 555.9042481181834 1020.6975916132749 551.3149657410379Q1026.7053794524477 546.6978695313035 1026.7053794524477 539.6887837189356L1026.7053794524477 539.6887837189356Q1026.7053794524477 532.4850010784464 1020.3081979570322 528.9804581722626Q1013.9110164616172 525.4759152660786 1000.4769353212455 522.0826276902499L1000.4769353212455 522.0826276902499Q988.2666628147795 518.8562231099535 980.5622311876925 515.5741908644796Q972.8577995606056 512.264344786417 967.350660708031 505.75590796064694Q961.8435218554562 499.24747113487683 961.8435218554562 488.62258708597005L961.8435218554562 488.62258708597005Q961.8435218554562 480.22280964416416 966.8500117214332 473.21372383179636Q971.8565015874103 466.2046380194285 981.0628801742903 462.0881907962918Q990.2692587611702 457.999557405744 1002.0901376113936 457.999557405744L1002.0901376113936 457.999557405744Q1020.3081979570322 457.999557405744 1031.517172490303 467.20593599262395Q1042.726147023574 476.4123145795039 1043.5327481686481 492.43308215063036L1043.5327481686481 492.43308215063036L1025.3146878230095 492.43308215063036Q1024.7027835060567 483.81079404811436 1018.4168573409966 478.609607354016Q1012.1031173433478 473.4084206599177 1001.478233294441 473.4084206599177L1001.478233294441 473.4084206599177Q991.6599503906082 473.4084206599177 985.8746732121458 477.60830938082063Q980.0615822010948 481.8081981017236 980.0615822010948 488.62258708597005L980.0615822010948 488.62258708597005Q980.0615822010948 494.0462844407785 983.5661251072786 497.5508273469624Q987.0706680134626 501.0553702531463 992.3831100379161 503.1414076973034Q997.6677382297805 505.25525897404924 1007.0966274773707 507.84194540480405L1007.0966274773707 507.84194540480405Q1018.9175063275943 511.0683499851004 1026.3159857962046 514.155685402453Q1033.7144652648153 517.2708346523941 1039.0269072892688 523.4733193196878Q1044.3393493137219 529.6758039869816 1044.5340461418432 539.6887837189356L1044.5340461418432 539.6887837189356Q1044.5340461418432 548.7004654776943 1039.5275562758666 555.9042481181834Q1034.5210664098895 563.1358445912613 1025.4259431533646 567.2244779818093Q1016.3030060642507 571.340925204946 1004.4821272140271 571.340925204946L1004.4821272140271 571.340925204946ZM1124.6378839974755 457.7770467450339Q1137.0706671646517 457.7770467450339 1147.0836468966058 463.0894887694873Q1157.09662662856 468.40193079394066 1162.7984623092561 479.02681484284744Q1168.5002979899523 489.62388505916545 1168.5002979899523 504.8380514852178L1168.5002979899523 504.8380514852178L1168.5002979899523 569.5330260866765L1150.476934472435 569.5330260866765L1150.476934472435 507.4525517485614Q1150.476934472435 491.04239052119226 1142.27185385875 482.3088470883213Q1134.0667732450656 473.603117488039 1119.8260909596202 473.603117488039L1119.8260909596202 473.603117488039Q1105.4185256786418 473.603117488039 1096.907492906481 482.61479924679765Q1088.39646013432 491.6264810055563 1088.39646013432 508.84324337799944L1088.39646013432 508.84324337799944L1088.39646013432 569.5330260866765L1070.1783997886814 569.5330260866765L1070.1783997886814 421.3409260537567L1088.39646013432 421.3409260537567L1088.39646013432 475.41101660630846Q1093.7923436565397 467.01123916450257 1103.3046744018957 462.39414295476826Q1112.817005147252 457.7770467450339 1124.6378839974755 457.7770467450339L1124.6378839974755 457.7770467450339ZM1277.4470802401297 459.77964269142467L1295.6651405857683 459.77964269142467L1295.6651405857683 569.5330260866765L1277.4470802401297 569.5330260866765L1277.4470802401297 553.3175616874287Q1272.2458935460313 561.7173391292345 1262.9282596287962 566.4178768367351Q1253.6106257115616 571.1462283768246 1242.4016511782906 571.1462283768246L1242.4016511782906 571.1462283768246Q1229.5794743548718 571.1462283768246 1219.3717977947963 565.8337863523711Q1209.1641212347208 560.5213443279179 1203.239774893315 549.8964602790111Q1197.3432423844974 539.299390062693 1197.3432423844974 524.0852236366406L1197.3432423844974 524.0852236366406L1197.3432423844974 459.77964269142467L1215.3666059020147 459.77964269142467L1215.3666059020147 521.6654202014183Q1215.3666059020147 537.8808846006661 1223.5716865156992 546.6144280335373Q1231.776767129384 555.3201576338195 1245.9896355822407 555.3201576338195L1245.9896355822407 555.3201576338195Q1260.6197115239293 555.3201576338195 1269.019488965735 546.3084758750608Q1277.4470802401297 537.2967941163022 1277.4470802401297 520.080031743859L1277.4470802401297 520.080031743859L1277.4470802401297 459.77964269142467ZM1319.6962919424582 514.2669407328078Q1319.6962919424582 497.43957201660737 1326.5106809267045 484.7286505235435Q1333.3250699109508 472.0177290304796 1345.2293902589408 465.0086432181118Q1357.1337106069304 457.999557405744 1371.763786548619 457.999557405744L1371.763786548619 457.999557405744Q1386.1713518295974 457.999557405744 1396.796235878504 464.2020420730377Q1407.421119927411 470.40452674033145 1412.6223066215093 479.80560215533274L1412.6223066215093 479.80560215533274L1412.6223066215093 459.77964269142467L1431.0350637952693 459.77964269142467L1431.0350637952693 569.5330260866765L1412.6223066215093 569.5330260866765L1412.6223066215093 549.1176729665257Q1407.1986092667007 558.7134452096483 1396.490283720028 565.0271852072972Q1385.7819581733547 571.340925204946 1371.5690897204977 571.340925204946L1371.5690897204977 571.340925204946Q1356.939013778809 571.340925204946 1345.1181349285857 564.1371425644568Q1333.3250699109508 556.9055460913788 1326.5106809267045 543.8886724398385Q1319.6962919424582 530.8717987882983 1319.6962919424582 514.2669407328078L1319.6962919424582 514.2669407328078ZM1412.6223066215093 514.4616375609291Q1412.6223066215093 502.05666822634174 1407.6158167555323 492.822475806873Q1402.6093268895552 483.61609721999304 1394.0982941173943 478.72086268437107Q1385.5872613452334 473.7978143161603 1375.379584785158 473.7978143161603L1375.379584785158 473.7978143161603Q1365.144094392494 473.7978143161603 1356.7443169506878 478.609607354016Q1348.344539508882 483.4214003918717 1343.338049642905 492.6277789787517Q1338.3315597769279 501.83415756563164 1338.3315597769279 514.2669407328078L1338.3315597769279 514.2669407328078Q1338.3315597769279 526.8666068955167 1343.338049642905 536.1842408127518Q1348.344539508882 545.5018747299866 1356.7443169506878 550.3971092656086Q1365.144094392494 555.3201576338195 1375.379584785158 555.3201576338195L1375.379584785158 555.3201576338195Q1385.5872613452334 555.3201576338195 1394.0982941173943 550.3971092656086Q1402.6093268895552 545.5018747299866 1407.6158167555323 536.1842408127518Q1412.6223066215093 526.8666068955167 1412.6223066215093 514.4616375609291L1412.6223066215093 514.4616375609291ZM1642.920840456452 470.40452674033145L1621.0869818742744 470.40452674033145Q1615.2738908632236 458.1942542338653 1604.259613158074 451.4911205799738Q1593.2453354529248 444.7601730934936 1578.6430733438247 444.7601730934936L1578.6430733438247 444.7601730934936Q1564.0129974021365 444.7601730934936 1552.3033738822678 451.4911205799738Q1540.5937503623995 458.1942542338653 1533.8628028759194 470.7104788988078Q1527.1596692220278 483.2267035637504 1527.1596692220278 499.6368647911195L1527.1596692220278 499.6368647911195Q1527.1596692220278 516.0748398510773 1533.8628028759194 528.4798091856649Q1540.5937503623995 540.8847785202524 1552.3033738822678 547.6157260067325Q1564.0129974021365 554.318859660624 1578.6430733438247 554.318859660624L1578.6430733438247 554.318859660624Q1599.0584264639756 554.318859660624 1612.2699969436371 542.1085871541579Q1625.4815674232987 529.870500815103 1627.7066740303994 509.06575403870954L1627.7066740303994 509.06575403870954L1572.0233811876997 509.06575403870954L1572.0233811876997 494.2409812688998L1647.1207291773549 494.2409812688998L1647.1207291773549 508.2591528936355Q1645.507526887207 525.4759152660786 1636.301148300327 539.8000390492907Q1627.094769713447 554.1241628325026 1612.0753001155158 562.4126849439535Q1597.055830517585 570.7290208879931 1578.6430733438247 570.7290208879931L1578.6430733438247 570.7290208879931Q1559.2012043642808 570.7290208879931 1543.1804367931545 561.6338976314682Q1527.1596692220278 552.5109605423545 1517.8420353047927 536.2954961431067Q1508.5522152201465 520.080031743859 1508.5522152201465 499.6368647911195L1508.5522152201465 499.6368647911195Q1508.5522152201465 479.22151167096877 1517.8420353047927 462.89479194136595Q1527.1596692220278 446.5680722117631 1543.1804367931545 437.4729489552382Q1559.2012043642808 428.35001186612453 1578.6430733438247 428.35001186612453L1578.6430733438247 428.35001186612453Q1600.8663255822453 428.35001186612453 1617.9718326243333 439.36428957127396Q1635.1051534990102 450.3785672764234 1642.920840456452 470.40452674033145L1642.920840456452 470.40452674033145ZM1719.0194864193027 571.340925204946Q1703.5828093325404 571.340925204946 1691.066584667598 564.3318393925781Q1678.5503600026555 557.3227535802102 1671.4578326925212 544.3893214264363Q1664.3374915497984 531.4837031052512 1664.3374915497984 514.4616375609291L1664.3374915497984 514.4616375609291Q1664.3374915497984 497.6342688447287 1671.6525295206425 484.7286505235435Q1678.9675674914865 471.79521836976954 1691.5672336541952 464.89738788775674Q1704.1947136494928 457.999557405744 1719.8260875643768 457.999557405744L1719.8260875643768 457.999557405744Q1735.429647646672 457.999557405744 1748.0571276419691 464.89738788775674Q1760.6567938046783 471.79521836976954 1767.9718317755223 484.61739519318843Q1775.2868697463664 497.43957201660737 1775.2868697463664 514.4616375609291L1775.2868697463664 514.4616375609291Q1775.2868697463664 531.4837031052512 1767.777134947401 544.3893214264363Q1760.2674001484356 557.3227535802102 1747.4452233250167 564.3318393925781Q1734.6230465015979 571.340925204946 1719.0194864193027 571.340925204946L1719.0194864193027 571.340925204946ZM1719.0194864193027 555.3201576338195Q1728.8377693231355 555.3201576338195 1737.4322435930626 550.703061424085Q1746.0545316955786 546.1137790469395 1751.366973720032 536.8795866274708Q1756.6516019118967 527.6732080405908 1756.6516019118967 514.4616375609291L1756.6516019118967 514.4616375609291Q1756.6516019118967 501.2500670812677 1751.4504152177983 492.0436884943877Q1746.2492285237 482.80949607491897 1737.8494510818941 478.30365519553965Q1729.4218598074995 473.7978143161603 1719.6035769036666 473.7978143161603L1719.6035769036666 473.7978143161603Q1709.5905971717125 473.7978143161603 1701.3020750602618 478.30365519553965Q1692.9857391162222 482.80949607491897 1687.9792492502452 492.0436884943877Q1682.972759384268 501.2500670812677 1682.972759384268 514.4616375609291L1682.972759384268 514.4616375609291Q1682.972759384268 527.8679048687121 1687.86799391989 537.1020972881809Q1692.791042288101 546.3084758750608 1700.9961229017854 550.8143167544401Q1709.2012035154698 555.3201576338195 1719.0194864193027 555.3201576338195L1719.0194864193027 555.3201576338195ZM1850.1895209079007 474.7991122893557L1821.5412733414764 474.7991122893557L1821.5412733414764 539.4940868908143Q1821.5412733414764 547.5044706763775 1824.962374749894 550.8143167544401Q1828.3556623257227 554.1241628325026 1836.755439767529 554.1241628325026L1836.755439767529 554.1241628325026L1850.1895209079007 554.1241628325026L1850.1895209079007 569.5330260866765L1833.7515458479425 569.5330260866765Q1818.5373794218904 569.5330260866765 1810.9442031251583 562.5239402743086Q1803.3232129958378 555.5148544619408 1803.3232129958378 539.4940868908143L1803.3232129958378 539.4940868908143L1803.3232129958378 474.7991122893557L1789.1103445429812 474.7991122893557L1789.1103445429812 459.77964269142467L1803.3232129958378 459.77964269142467L1803.3232129958378 432.16050693078483L1821.5412733414764 432.16050693078483L1821.5412733414764 459.77964269142467L1850.1895209079007 459.77964269142467L1850.1895209079007 474.7991122893557ZM1923.0895761230436 474.7991122893557L1894.4413285566197 474.7991122893557L1894.4413285566197 539.4940868908143Q1894.4413285566197 547.5044706763775 1897.8346161324484 550.8143167544401Q1901.255717540866 554.1241628325026 1909.6554949826718 554.1241628325026L1909.6554949826718 554.1241628325026L1923.0895761230436 554.1241628325026L1923.0895761230436 569.5330260866765L1906.6516010630858 569.5330260866765Q1891.4374346370332 569.5330260866765 1883.8164445077127 562.5239402743086Q1876.2232682109811 555.5148544619408 1876.2232682109811 539.4940868908143L1876.2232682109811 539.4940868908143L1876.2232682109811 474.7991122893557L1862.010399758124 474.7991122893557L1862.010399758124 459.77964269142467L1876.2232682109811 459.77964269142467L1876.2232682109811 432.16050693078483L1894.4413285566197 432.16050693078483L1894.4413285566197 459.77964269142467L1923.0895761230436 459.77964269142467L1923.0895761230436 474.7991122893557ZM2024.2206714157796 459.77964269142467L2042.4387317614178 459.77964269142467L2042.4387317614178 569.5330260866765L2024.2206714157796 569.5330260866765L2024.2206714157796 553.3175616874287Q2018.9916708890923 561.7173391292345 2009.7018508044462 566.4178768367351Q2000.384216887211 571.1462283768246 1989.1752423539401 571.1462283768246L1989.1752423539401 571.1462283768246Q1976.3530655305212 571.1462283768246 1966.1453889704462 565.8337863523711Q1955.9098985777819 560.5213443279179 1950.0133660689644 549.8964602790111Q1944.116833560147 539.299390062693 1944.116833560147 524.0852236366406L1944.116833560147 524.0852236366406L1944.116833560147 459.77964269142467L1962.1401970776647 459.77964269142467L1962.1401970776647 521.6654202014183Q1962.1401970776647 537.8808846006661 1970.345277691349 546.6144280335373Q1978.5503583050336 555.3201576338195 1992.7632267578906 555.3201576338195L1992.7632267578906 555.3201576338195Q2007.3933026995787 555.3201576338195 2015.793080141385 546.3084758750608Q2024.2206714157796 537.2967941163022 2024.2206714157796 520.080031743859L2024.2206714157796 520.080031743859L2024.2206714157796 459.77964269142467ZM2112.112382396265 571.340925204946Q2099.512716233556 571.340925204946 2089.499736501602 567.029781153688Q2079.486756769648 562.71863710243 2073.673665758597 555.014205475343Q2067.860574747546 547.3097738482562 2067.276484263182 537.2967941163022L2067.276484263182 537.2967941163022L2086.0786350931844 537.2967941163022Q2086.8852362382586 545.5018747299866 2093.81088055286 550.703061424085Q2100.708711034873 555.9042481181834 2111.9176855681435 555.9042481181834L2111.9176855681435 555.9042481181834Q2122.347872788929 555.9042481181834 2128.3556606281013 551.3149657410379Q2134.363448467274 546.6978695313035 2134.363448467274 539.6887837189356L2134.363448467274 539.6887837189356Q2134.363448467274 532.4850010784464 2127.9384531392698 528.9804581722626Q2121.541271643855 525.4759152660786 2108.1071905034833 522.0826276902499L2108.1071905034833 522.0826276902499Q2095.8969179970168 518.8562231099535 2088.19248636993 515.5741908644796Q2080.4880547428434 512.264344786417 2074.9809158902685 505.75590796064694Q2069.4737770376937 499.24747113487683 2069.4737770376937 488.62258708597005L2069.4737770376937 488.62258708597005Q2069.4737770376937 480.22280964416416 2074.480266903671 473.21372383179636Q2079.486756769648 466.2046380194285 2088.693135356528 462.0881907962918Q2097.899513943408 457.999557405744 2109.720392793631 457.999557405744L2109.720392793631 457.999557405744Q2127.9384531392698 457.999557405744 2139.1474276725407 467.20593599262395Q2150.3842160384 476.4123145795039 2151.1630033508854 492.43308215063036L2151.1630033508854 492.43308215063036L2132.944943005247 492.43308215063036Q2132.360852520883 483.81079404811436 2126.0471125232343 478.609607354016Q2119.7333725255853 473.4084206599177 2109.1084884766788 473.4084206599177L2109.1084884766788 473.4084206599177Q2099.318019405435 473.4084206599177 2093.5049283943836 477.60830938082063Q2087.6918373833323 481.8081981017236 2087.6918373833323 488.62258708597005L2087.6918373833323 488.62258708597005Q2087.6918373833323 494.0462844407785 2091.196380289516 497.5508273469624Q2094.7009231957004 501.0553702531463 2100.0133652201534 503.1414076973034Q2105.3258072446074 505.25525897404924 2114.7268826596087 507.84194540480405L2114.7268826596087 507.84194540480405Q2126.547761509832 511.0683499851004 2133.9462409784423 514.155685402453Q2141.3725342796415 517.2708346523941 2146.657162471506 523.4733193196878Q2151.9696044959596 529.6758039869816 2152.164301324081 539.6887837189356L2152.164301324081 539.6887837189356Q2152.164301324081 548.7004654776943 2147.1578114581043 555.9042481181834Q2142.151321592127 563.1358445912613 2133.056198335602 567.2244779818093Q2123.9332612464887 571.340925204946 2112.112382396265 571.340925204946L2112.112382396265 571.340925204946Z " fill="#50c878" transform="matrix(0.40656749228405376,0,0,0.40656749228405376,0,98.20391387924833)"/></g></svg>